<svg width="200" height="200" viewBox="0 0 200 200" fill="none" xmlns="http://www.w3.org/2000/svg">
  <rect width="200" height="200" fill="#F3F4F6"/>
  <path d="M60 80C60 68.9543 68.9543 60 80 60H120C131.046 60 140 68.9543 140 80V120C140 131.046 131.046 140 120 140H80C68.9543 140 60 131.046 60 120V80Z" fill="#E5E7EB"/>
  <path d="M70 90L85 105L95 95L110 110L130 90V120C130 126.627 124.627 132 118 132H82C75.3726 132 70 126.627 70 120V90Z" fill="#D1D5DB"/>
  <circle cx="85" cy="85" r="8" fill="#9CA3AF"/>
  <path d="M70 70H130V80H70V70Z" fill="#D1D5DB"/>
  <path d="M70 130H130V140H70V130Z" fill="#D1D5DB"/>
  <path d="M70 100H130V110H70V100Z" fill="#D1D5DB"/>
</svg> 